<svg width="116" height="116" viewBox="0 0 119 116" fill="none" xmlns="http://www.w3.org/2000/svg">
<path d="M59.5 0C26.6461 0 0 25.9695 0 58C0 83.6263 17.0467 105.367 40.693 113.037C43.6631 113.574 44.625 111.776 44.625 110.248V99.4506C28.0741 102.96 24.628 92.6066 24.628 92.6066C21.9208 85.9028 18.0186 84.1193 18.0186 84.1193C12.619 80.5184 18.4301 80.5958 18.4301 80.5958C24.4049 81.0018 27.5485 86.5746 27.5485 86.5746C32.8539 95.4389 41.4665 92.8773 44.863 91.3934C45.3935 87.6476 46.9356 85.0859 48.6413 83.6408C35.4273 82.1666 21.534 77.1931 21.534 54.9743C21.534 48.6378 23.8595 43.4661 27.6625 39.4061C27.0477 37.9416 25.0098 32.0401 28.2427 24.0555C28.2427 24.0555 33.2407 22.4992 44.6101 30.0005C49.3553 28.7148 54.4425 28.072 59.5 28.0478C64.5575 28.072 69.6497 28.7148 74.4047 30.0005C85.7643 22.4992 90.7524 24.0555 90.7524 24.0555C93.9902 32.045 91.9523 37.9465 91.3375 39.4061C95.1554 43.4661 97.461 48.6426 97.461 54.9743C97.461 77.2511 83.543 82.1569 70.2943 83.5924C72.4264 85.3904 74.375 88.9188 74.375 94.3321V110.248C74.375 111.79 75.327 113.603 78.3466 113.032C101.973 105.352 119 83.6166 119 58C119 25.9695 92.3589 0 59.5 0Z" fill="black"/>
<g clip-path="url(#clip0_5_130)">
<path d="M44.4345 29.8064C44.5339 29.725 44.7312 29.5621 44.8306 29.4807C45.5262 30.0057 45.8416 30.8242 46.2952 31.5276C47.986 34.2399 50.0282 36.7388 52.2893 39.0187C53.4357 40.0534 54.5288 41.1498 55.7631 42.0905C59.6127 45.1931 64.0817 47.4828 68.7162 49.2545C68.1833 49.1436 67.5871 48.9569 67.0917 49.277C67.7167 49.5479 68.3792 49.7978 68.853 50.3018C66.2405 49.2377 63.6496 48.1075 61.1566 46.7949C58.8782 45.5272 56.7266 44.0475 54.7189 42.4021C53.7108 41.6145 52.8308 40.688 51.8745 39.8428C50.1262 38.1146 48.5232 36.246 47.0873 34.2609C46.121 32.8584 44.8709 31.5823 44.4633 29.8892L44.4345 29.8064Z" fill="#090201" stroke="#090201" stroke-width="0.125"/>
<path d="M67.0916 49.2771C67.587 48.957 68.1833 49.1437 68.7162 49.2546C69.154 49.3964 69.5947 49.5284 70.0368 49.6632C76.7309 51.8546 83.8296 52.7293 90.875 52.6268C92.7243 52.5692 94.585 52.6324 96.4241 52.3923C96.872 52.3221 97.3257 52.3685 97.7736 52.4401C97.8168 52.5341 97.9018 52.7208 97.945 52.8149C97.8312 52.9019 97.7203 52.9862 97.608 53.0676C96.7899 53.2375 95.9474 53.2094 95.1179 53.2712C94.2784 57.3319 93.8323 59.6887 92.4362 63.0465C90.8823 68.17 81.3772 69.3478 78.1984 68.9386C75.4779 68.1286 73.2197 66.1814 71.7852 63.8186C70.2788 61.4446 69.5976 58.6762 69.2447 55.9344C69.0834 54.7649 69.082 53.5772 68.7954 52.4274C68.9653 51.7325 68.9523 51.0053 68.853 50.3019C68.3791 49.7979 67.7167 49.548 67.0916 49.2771Z" fill="black" stroke="black" stroke-width="0.125"/>
</g>
<defs>
<clipPath id="clip0_5_130">
<rect width="69.2431" height="45.4333" fill="white" transform="translate(44.4266 23.5866)"/>
</clipPath>
</defs>
</svg>
